<?xml version="1.0"?>
<svg xmlns="http://www.w3.org/2000/svg" viewBox="0 0 512 512" width="512" height="512"><g id="_OUTLINE" data-name="/ OUTLINE"><path d="M384,272H344v16h40a96,96,0,1,1-96,96V360H272v24A112,112,0,1,0,384,272Z"/><path d="M224,384a96,96,0,1,1-96-96h32V272H128A112,112,0,1,0,240,384V360H224Z"/><path d="M128,240h48V224H128a96,96,0,1,1,96-96v24h16V128A112,112,0,1,0,128,240Z"/><path d="M288,128a96,96,0,1,1,96,96H352v16h32A112,112,0,1,0,272,128v24h16Z"/><path d="M320,240v5.49023a55.63486,55.63486,0,0,1-16.40234,39.59815L288,300.68652V344h16V307.314l10.91211-10.9121A71.53149,71.53149,0,0,0,336,245.49023V240a72.0004,72.0004,0,0,0-143.96484-2.2749l-15.626,26.043A16.0001,16.0001,0,0,0,190.12988,288H192v8a24.0275,24.0275,0,0,0,24,24v24h16V304H216a8.00917,8.00917,0,0,1-8-8V272H190.12988L208,242.21582V240a56,56,0,0,1,112,0Z"/><path d="M96,64V80H88a24.0275,24.0275,0,0,0-24,24v64a24.0275,24.0275,0,0,0,24,24h80a24.0275,24.0275,0,0,0,24-24V104a24.0275,24.0275,0,0,0-24-24h-8V64H144V80H112V64Zm80,104a8.00917,8.00917,0,0,1-8,8H88a8.00917,8.00917,0,0,1-8-8V128h96Zm-8-72a8.00917,8.00917,0,0,1,8,8v8H80v-8a8.00917,8.00917,0,0,1,8-8Z"/><rect x="104" y="144" width="16" height="16"/><rect x="136" y="144" width="16" height="16"/><path d="M192,392V367.01514L182.24609,328H73.75391L64,367.01514V392h8v32H64v16H192V424h-8V392Zm-80-23.01514L118.24585,344h19.5083L144,368.98486V376H112Zm-32,0L86.24609,344h15.50782L96,367.01514V376H80ZM120,424H88V392h32Zm48,0H136V392h32Zm8-48H160v-8.98486L154.24609,344h15.50782L176,368.98486Z"/><path d="M322.34277,397.65674,384,459.31348l61.65723-61.65674a41.94131,41.94131,0,0,0-59.31446-59.31348L384,340.68652l-2.34277-2.34326a41.94131,41.94131,0,0,0-59.31446,59.31348Zm11.31446-48a25.93981,25.93981,0,0,1,36.68554,0L384,363.31348l13.65723-13.65674a25.94094,25.94094,0,1,1,36.68554,36.68652L384,436.68652l-50.34277-50.34326a25.93981,25.93981,0,0,1,0-36.68652Z"/><path d="M376.9707,194.34326l48-48A23.84254,23.84254,0,0,0,432,129.37256V91.314l13.65723-13.65722L434.34277,66.34326,420.686,80H382.627a23.84385,23.84385,0,0,0-16.9707,7.02979l-48,48a24.02666,24.02666,0,0,0,0,33.94042l25.373,25.373a24.02783,24.02783,0,0,0,33.9414,0Zm-48-36.68652a8.00889,8.00889,0,0,1,0-11.31348l48-48A7.94524,7.94524,0,0,1,382.627,96H404.686l-18.34327,18.34326,11.31446,11.31348L416,107.314v22.0586a7.94677,7.94677,0,0,1-2.34375,5.65723l-48,48a8.00771,8.00771,0,0,1-11.3125,0Z"/></g></svg>
