<?xml version="1.0" encoding="iso-8859-1"?>
<!-- Generator: Adobe Illustrator 19.0.0, SVG Export Plug-In . SVG Version: 6.00 Build 0)  -->
<svg version="1.1" id="Capa_1" xmlns="http://www.w3.org/2000/svg" xmlns:xlink="http://www.w3.org/1999/xlink" x="0px" y="0px"
	 viewBox="0 0 512 512" style="enable-background:new 0 0 512 512;" xml:space="preserve">
<g>
	<g>
		<path d="M467.885,211.885h-22.402c-4.143,0-7.5,3.357-7.5,7.5c0,4.143,3.357,7.5,7.5,7.5h22.402c4.143,0,7.5-3.357,7.5-7.5
			C475.385,215.242,472.028,211.885,467.885,211.885z"/>
	</g>
</g>
<g>
	<g>
		<path d="M66.519,211.885H44.115c-4.143,0-7.5,3.357-7.5,7.5c0,4.143,3.357,7.5,7.5,7.5h22.402c4.143,0,7.501-3.357,7.501-7.5
			C74.019,215.242,70.662,211.885,66.519,211.885z"/>
	</g>
</g>
<g>
	<g>
		<path d="M445.993,109.693c-2.071-3.587-6.659-4.815-10.246-2.745l-19.4,11.202c-3.587,2.071-4.816,6.658-2.745,10.246
			c1.39,2.406,3.91,3.751,6.502,3.751c1.272,0,2.563-0.324,3.743-1.006l19.4-11.202C446.835,117.867,448.064,113.28,445.993,109.693
			z"/>
	</g>
</g>
<g>
	<g>
		<path d="M98.398,310.376c-2.07-3.587-6.66-4.814-10.246-2.745l-19.4,11.201c-3.587,2.071-4.816,6.658-2.745,10.246
			c2.08,3.605,6.675,4.806,10.246,2.745l19.4-11.201C99.241,318.55,100.47,313.963,98.398,310.376z"/>
	</g>
</g>
<g>
	<g>
		<path d="M365.693,29.393c-3.59-2.07-8.175-0.843-10.246,2.745l-11.201,19.4c-2.898,5.018,0.768,11.252,6.488,11.252
			c2.592,0,5.113-1.345,6.502-3.751l11.201-19.4C370.509,36.051,369.28,31.464,365.693,29.393z"/>
	</g>
</g>
<g>
	<g>
		<path d="M165.009,376.987c-3.589-2.071-8.175-0.843-10.246,2.745l-11.201,19.4c-2.898,5.018,0.768,11.252,6.488,11.252
			c2.592,0,5.113-1.345,6.502-3.751l11.201-19.4C169.826,383.645,168.597,379.058,165.009,376.987z"/>
	</g>
</g>
<g>
	<g>
		<path d="M256,0c-4.143,0-7.5,3.357-7.5,7.5v22.401c0,4.143,3.358,7.5,7.5,7.5c4.143,0,7.5-3.357,7.5-7.5V7.5
			C263.5,3.357,260.143,0,256,0z"/>
	</g>
</g>
<g>
	<g>
		<path d="M167.755,51.538l-11.201-19.4c-2.07-3.588-6.659-4.815-10.246-2.745c-3.587,2.071-4.816,6.658-2.745,10.246l11.201,19.4
			c2.08,3.605,6.675,4.806,10.246,2.745C168.597,59.713,169.826,55.125,167.755,51.538z"/>
	</g>
</g>
<g>
	<g>
		<path d="M368.438,399.132l-11.201-19.4c-2.07-3.587-6.66-4.815-10.246-2.745c-3.587,2.071-4.816,6.658-2.745,10.246l11.201,19.4
			c2.08,3.605,6.675,4.806,10.246,2.745C369.28,407.307,370.509,402.719,368.438,399.132z"/>
	</g>
</g>
<g>
	<g>
		<path d="M95.654,118.149l-19.401-11.203c-3.587-2.071-8.174-0.844-10.246,2.745c-2.071,3.587-0.842,8.174,2.745,10.247
			c19.293,10.769,19.644,12.208,23.144,12.208C99.553,132.146,102.28,121.974,95.654,118.149z"/>
	</g>
</g>
<g>
	<g>
		<path d="M443.248,318.832l-19.4-11.201c-3.589-2.07-8.176-0.843-10.246,2.745c-2.071,3.587-0.842,8.174,2.745,10.246l19.4,11.201
			c1.182,0.682,2.471,1.006,3.743,1.006C447.147,332.829,449.873,322.658,443.248,318.832z"/>
	</g>
</g>
<g>
	<g>
		<path d="M391.468,115.644c-2.52-3.287-7.229-3.908-10.517-1.387c-3.286,2.521-3.907,7.229-1.387,10.517
			c20.976,27.353,32.064,60.068,32.064,94.611c0,52.572-26.272,101.224-70.275,130.143c-10.02,6.584-16.794,16.696-19.098,28.037
			h-19.528c-4.143,0-7.5,3.357-7.5,7.5c0,4.143,3.357,7.5,7.5,7.5h18.647v10.428H190.625v-10.428h77.101c4.143,0,7.5-3.357,7.5-7.5
			c0-4.143-3.357-7.5-7.5-7.5h-78.278c-2.632-11.583-9.623-21.895-19.821-28.713c-81.2-54.278-93.834-169.51-22.783-239.794
			c59.377-58.737,149.947-59.055,209.662-8.488c3.161,2.677,7.895,2.283,10.571-0.877c2.677-3.161,2.284-7.894-0.877-10.571
			c-65.424-55.402-164.793-55.14-229.906,9.272c-77.878,77.039-63.986,203.447,24.997,262.93c8.976,6,14.334,15.926,14.334,26.552
			c0,28.088,0,17.515,0,39.844c0,9.484,5.674,17.661,13.803,21.332v11.793c0,12.713,10.192,23.083,22.833,23.386l3.057,7.683
			C220.171,504.116,231.793,512,244.923,512h20.643c14.048,0,26.481-8.434,31.674-21.487l2.499-6.282
			c12.642-0.303,22.833-10.674,22.833-23.386v-11.793c8.128-3.671,13.803-11.849,13.803-21.332c0-15.012,0-27.63,0-41.512
			c0-9.681,4.94-18.705,13.217-24.144c48.238-31.701,77.037-85.039,77.037-142.679C426.63,181.511,414.471,145.639,391.468,115.644z
			 M265.568,496.999h-20.643c-12.939,0-16.355-12.543-16.514-12.755h55.179C283.511,484.344,279.457,496.999,265.568,496.999z
			 M307.574,460.843L307.574,460.843c-0.001,4.632-3.769,8.4-8.4,8.4c-19.001,0-68.593,0-86.347,0c-4.631,0-8.398-3.768-8.398-8.4
			v-9.726h103.145V460.843z M321.375,427.719c0,4.631-3.768,8.399-8.399,8.399h-113.95c-4.632,0-8.399-3.768-8.399-8.399v-9.726
			h130.749V427.719z"/>
	</g>
</g>
<g>
	<g>
		<path d="M374.751,159.333c-2.383-10.355-10.776-17.436-21.38-18.043c-18.704-1.077-38.007,3.726-55.838,13.872
			c-3.601,2.048-4.858,6.627-2.81,10.229c2.048,3.601,6.626,4.858,10.229,2.81c15.312-8.711,31.771-12.834,47.563-11.935
			c3.895,0.224,6.741,2.626,7.615,6.428c6.154,26.761-2.274,57.077-22.546,81.101c-21.756,25.779-51.277,37.532-76.262,35.844
			c3.804-8.727,8.628-18.26,14.702-27.983c10.472-3.293,22.89-2.686,23.023-2.679c4.141,0.198,7.666-2.941,7.895-7.075
			c0.229-4.136-2.938-7.674-7.074-7.902c-0.373-0.022-5.168-0.266-11.642,0.268c12.52-15.933,28.752-31.374,49.725-43.579
			c3.58-2.083,4.793-6.675,2.71-10.256c-2.083-3.581-6.675-4.794-10.256-2.71c-11.342,6.599-21.386,14.063-30.301,22.013
			c-0.449-3.225-1.017-5.322-1.075-5.533c-1.105-3.979-5.216-6.307-9.203-5.213c-3.985,1.09-6.334,5.211-5.258,9.201
			c0.023,0.089,2.269,8.653,0.251,16.804c-7.563,8.44-14.074,17.148-19.647,25.764c-0.352,0.436-0.65,0.909-0.895,1.409
			c-4.642,7.296-8.63,14.509-12.037,21.417c-2.415-24.213,6.245-50.282,24.116-71.459c0.656-0.778,1.322-1.544,1.994-2.299
			c2.755-3.093,2.48-7.834-0.612-10.59c-3.094-2.755-7.835-2.481-10.59,0.612c-0.76,0.853-1.512,1.72-2.255,2.6
			c-23.301,27.61-32.91,62.802-25.704,94.137c0.726,3.156,2.017,6.003,3.752,8.462c-2.428,6.437-4.443,12.571-6.11,18.258
			c-0.893-1.742-1.844-3.518-2.857-5.324c5.622-11.903,0.319-43.493-24.506-65.071c-17.911-15.568-40.988-22.203-61.733-17.751
			c-7.802,1.674-13.214,7.899-13.786,15.859c-1.521,21.161,8.265,43.091,26.177,58.659c19.187,16.678,42.878,21.996,61.91,17.708
			c6.417,11.893,7.751,17.667,9.07,19.749c-1.517,8.162-1.968,13.2-2.007,13.674c-0.348,4.125,2.712,7.748,6.836,8.102
			c0.217,0.019,0.433,0.027,0.646,0.027c3.852,0,7.128-2.952,7.465-6.859c0.02-0.231,1.922-21.116,11.649-48.235
			c14.878,3.927,59.739-0.542,93.354-40.371C372.349,225.86,381.957,190.667,374.751,159.333z M169.657,255.269
			c19.829,9.663,33.957,24.103,43.859,38.275c-14.776,1.445-30.702-4.022-43.551-15.19c-14.368-12.489-22.238-29.783-21.055-46.262
			c0.09-1.244,0.753-2.007,1.972-2.269c16.153-3.47,34.375,1.917,48.744,14.406c10.382,9.024,17.347,20.559,19.98,32.481
			c-10.62-13.129-24.745-25.847-43.379-34.926c-3.722-1.813-8.214-0.267-10.028,3.457
			C164.385,248.966,165.933,253.455,169.657,255.269z"/>
	</g>
</g>
<g>
</g>
<g>
</g>
<g>
</g>
<g>
</g>
<g>
</g>
<g>
</g>
<g>
</g>
<g>
</g>
<g>
</g>
<g>
</g>
<g>
</g>
<g>
</g>
<g>
</g>
<g>
</g>
<g>
</g>
</svg>
