<svg id="svg7119" height="512" viewBox="0 0 16.933333 16.933334" width="512" xmlns="http://www.w3.org/2000/svg" xmlns:svg="http://www.w3.org/2000/svg"><g id="layer1" transform="translate(0 -280.067)"><path id="path10969" d="m8.4666655 280.59633c-1.7503696 0-3.175 1.42437-3.175 3.175.00106 1.13636.61078 2.17992 1.5875 2.74402v.4315h3.1749995v-.4284c.97767-.56475 1.587389-1.60986 1.5875-2.74712 0-1.75037-1.42463-3.175-3.1749995-3.175zm.259932 1.5844c.2160799-.006.3472524.23634.2247926.41445l-.7834154 1.17615h1.0919249c.2119683-.00053.3386164.23524.2206572.41135l-1.0588493 1.58594c-.1864413.3316-.6733011.007-.4392507-.29248l.7834154-1.17616h-1.0919222c-.2119603.00053-.338619-.23575-.2206598-.41186l1.0583333-1.58595c.047202-.0735.1276641-.11892.214974-.12144zm-1.847432 5.2958v.7922c.0000212.14612.1184725.26508.2645833.2651h2.6458334c.1461188-.00002.2645728-.11898.2645828-.2651v-.7922zm.4547526 1.58595.082166.32918c.029898.11783.1362948.20012.2578655.19947h1.5859496c.1215787.00053.2279332-.0816.2578655-.19947l.082164-.32918zm.3389974 1.05782v.37155c.2388447.15505.462497.33226.6640433.53227.2733252-.27112.5841894-.50448.9239726-.6904v-.21342h-.00106-1.5859495zm-4.4979167.52968c0 1.90095 1.5386235 3.43907 3.4395834 3.43907h.5291666v-.26355c0-.91763.3168756-1.76163.8428435-2.435-.622099-.6208-1.4810105-1.00459-2.4308594-1.00459h-2.1288111c-.1498547 0-.2523225.12785-.251923.26407zm7.9374992-.26407c-1.900951 0-3.4395825 1.53863-3.4395825 3.43959v2.38073c.0005292.14531.118237.26297.2635488.26355h1.0588519c.1461188.00053.2650305-.11743.2656152-.26355v-2.11718h1.0583326c1.90096 0 3.439584-1.53812 3.439584-3.43907-.000265-.14632-.119296-.26462-.265615-.26407zm-5.959289 1.18391c.2073619.33625.4683575.61095.781349.77153.2922852.16777.064635.61042-.2418477.47026-.4238096-.21746-.7473871-.57035-.990637-.9648-.107913-.16938.00479-.39251.2191094-.40644.1039839.003.1861555.0519.2320263.12945zm7.078085.27699c-.24325.39445-.566322.74734-.990121.9648-.306475.14014-.534109-.30248-.241845-.47026.312979-.16058.573469-.43528.780831-.77153.0447-.0754.123854-.1238.224533-.12945.217609.007.336582.23395.226602.40644z" font-variant-ligatures="normal" font-variant-position="normal" font-variant-caps="normal" font-variant-numeric="normal" font-variant-alternates="normal" font-feature-settings="normal" text-indent="0" text-align="start" text-decoration-line="none" text-decoration-style="solid" text-decoration-color="rgb(0,0,0)" text-transform="none" text-orientation="mixed" white-space="normal" shape-padding="0" isolation="auto" mix-blend-mode="normal" solid-color="rgb(0,0,0)" solid-opacity="1" vector-effect="none"/></g></svg>