<svg id="Layer_1" viewBox="0 0 512 512" xmlns="http://www.w3.org/2000/svg" data-name="Layer 1"><path d="m10.005 336.805 134.05 134.051 42.661-42.661-134.05-134.08zm148.932-271.871c-31.72 31.72-31.72 83.622 0 115.342s83.622 31.72 115.342 0l88.724-88.724c17.093-17.093 45.042-17.093 62.107 0 17.093 17.064 17.093 45.014 0 62.107-17.065 17.065-45.014 17.065-62.107 0l-22.564-22.592-26.617 26.617 22.564 22.592c31.72 31.72 83.622 31.72 115.342 0s31.72-83.622 0-115.342-83.622-31.72-115.342 0l-88.724 88.724c-17.065 17.065-45.014 17.065-62.107 0-17.065-17.093-17.065-45.042 0-62.107 17.093-17.093 45.042-17.093 62.107 0l22.564 22.564 26.617-26.617-22.564-22.564c-31.72-31.72-83.622-31.72-115.342 0zm249.789 214.441 57.005-61.569c17.008-18.397 47.055 6.661 32.315 26.986l-76.365 105.279c-15.08 20.806-36.68 32.854-62.419 32.854h-147.713c-12.387 0-23.046 4.847-31.153 14.173l-3.628 4.167-97.654-97.654 48.501-47.367c14.23-13.918 31.209-21.175 51.109-21.175h40.875c13.266 0 24.633 3.033 36.142 9.666l12.529 7.257h99.468c15.959 0 29.027 13.039 29.027 28.999 0 15.846-12.926 29.027-29.027 29.027h-84.813c-3.288 0-6.01 2.693-6.01 5.981 0 3.316 2.721 6.009 6.01 6.009h84.813c23.216 0 41.924-19.446 40.989-42.633z" fill-rule="evenodd"/></svg>